# xmcd
#
# Track frame offsets: 
#        150
#        17085
#        31647
#        43327
#        58943
#        74402
#        88881
#        102942
#        116797
#        133052
#        150204
#        166786
#        184822
#        201746
#        218419
#        234661
#        249477
#        265359
#        290738
#        307406
#
# Disc length: 4305 seconds
#
# Revision: 0
# Processed by: cddbd v1.5.2PL0 Copyright (c) Steve Scherf et al.
# Submitted via: ExactAudioCopy v1.0b3
#
DISCID=3110cf14
DTITLE=Various Artist - Bass Breaker Vol. 1 - CD 2
DYEAR=1900
DGENRE=
TTITLE0=Cuba Club - I'm Only Shooting Love (2-4 Grooves Radio)
TTITLE1=Phunk-A-Delic - Rockin' (Radio Edit)
TTITLE2=Till West and DJ Delicious - Same Man (Edit)
TTITLE3=The Drill - One More Night (Metro Radio Mix)
TTITLE4=Heiko and Maiko - Techno Rock (Elektro-Energetischer Cut)
TTITLE5=Untouchable 3 - That Once In A Lifetime (Hi_Tack Radio Mix)
TTITLE6=D.O.N.S. - Big Fun (Radio Edit)
TTITLE7=Dario G. - Ring Of Fire (Stadium Edit)
TTITLE8=Nikita and Lance - Can't You See (Sunset Crew Radio Edit)
TTITLE9=Freddy Fader - Time After Time (David's Song) (Single Edit)
TTITLE10=Monte E Fago - Esta Loca (Original Mix Edit)
TTITLE11=Turbo Lovers - Let's Go Trippin'
TTITLE12=Tom Mountain - A Little Respect (The Real Booty Babes Remix E
TTITLE12=dit)
TTITLE13=Tova - Rebel
TTITLE14=Dan Winter - Check That Body
TTITLE15=Tunebazz Inc. - Party With You (Radio Edit)
TTITLE16=Stars 'n' Stripes - Self Esteem (Klubbrockerz Radio)
TTITLE17=Benassi Bros. Feat. Sandy - Feel Alive (Original Extended)
TTITLE18=Dhany - Miles Of Love (Radio Edit)
TTITLE19=Floorburner - Kickin' Da Base
EXTD=
EXTT0=
EXTT1=
EXTT2=
EXTT3=
EXTT4=
EXTT5=
EXTT6=
EXTT7=
EXTT8=
EXTT9=
EXTT10=
EXTT11=
EXTT12=
EXTT13=
EXTT14=
EXTT15=
EXTT16=
EXTT17=
EXTT18=
EXTT19=
PLAYORDER=
